#!OML:ASF H:\LiuWeirdWalks\Patient Classification 1\Patient 1\Session 1\male.ASF
:FULLY-SPECIFIED
:DEGREES
300
root 1.57895 17.4666 8.1479 -0.680047 -1.88418 -1.147
lowerback 5.90101 2.66751 -0.96922
upperback -0.671178 3.55131 1.57591
thorax -4.16088 1.80386 1.83458
lowerneck -15.1335 -0.94289 4.56143
upperneck 20.8786 -1.52755 -3.99103
head 8.96651 -0.786506 -2.30876
rclavicle -3.56151e-014 1.25234e-014
rhumerus -36.2412 -9.67439 -72.718
rradius 34.3945
rwrist -8.22132
rhand -20.7323 -4.75697
rfingers 7.12502
rthumb 5.63278 -34.6621
lclavicle -3.56151e-014 1.25234e-014
lhumerus -53.2012 26.1106 58.6251
lradius 8.7533
lwrist -22.5292
lhand -13.3139 -2.99008
lfingers 7.12502
lthumb 12.7906 26.5981
rfemur 9.62148 -0.900808 17.1143
rtibia 49.2367
rfoot 24.5524 -6.22072
rtoes -7.40381
lfemur -29.819 3.83651 -20.6593
ltibia 35.1304
lfoot -3.49395 9.58313
ltoes -14.2321
301
root 1.60149 17.4845 8.44892 -1.14043 -1.7069 -0.568065
lowerback 6.17415 2.59581 -1.53288
upperback -0.553246 3.40524 1.43139
thorax -4.2106 1.74151 2.0053
lowerneck -15.1353 -0.914903 4.54087
upperneck 20.8662 -1.48732 -3.976
head 8.9649 -0.767844 -2.29526
rclavicle 3.96094e-014 6.16232e-015
rhumerus -36.8467 -9.97693 -72.5213
rradius 33.7237
rwrist -8.28588
rhand -20.9762 -5.04707
rfingers 7.12502
rthumb 5.39736 -34.9583
lclavicle 3.96094e-014 6.16232e-015
lhumerus -52.7787 26.0788 59.0276
lradius 8.73924
lwrist -22.9144
lhand -13.1243 -3.1084
lfingers 7.12502
lthumb 12.9733 26.4682
rfemur 7.91885 -1.21858 16.1813
rtibia 52.7721
rfoot 25.0285 -6.40131
rtoes -5.65781
lfemur -28.5705 4.09699 -21.4992
ltibia 35.6907
lfoot -3.83822 9.569
ltoes -12.5815
302
root 1.62292 17.5041 8.74562 -1.53005 -1.54156 -0.118994
lowerback 6.3818 2.50898 -1.96583
upperback -0.426637 3.24858 1.3217
thorax -4.20635 1.67071 2.14428
lowerneck -15.1726 -0.854186 4.57261
upperneck 20.8471 -1.40753 -3.99941
head 8.96865 -0.730966 -2.29938
rclavicle -4.27542e-014 -2.78299e-015
rhumerus -37.3782 -10.2199 -72.3754
rradius 32.9863
rwrist -8.31301
rhand -21.1817 -5.32184
rfingers 7.12502
rthumb 5.19888 -35.2381
lclavicle -4.27542e-014 -2.78299e-015
lhumerus -52.3189 26.0982 59.4103
lradius 8.83288
lwrist -23.2774
lhand -12.9924 -3.25008
lfingers 7.12502
lthumb 13.1005 26.3184
rfemur 6.13462 -1.62264 15.425
rtibia 56.1175
rfoot 24.0132 -6.94744
rtoes -5.41253
lfemur -27.3055 4.17296 -22.1479
ltibia 36.1398
lfoot -4.3561 9.82162
ltoes -11.0611
303
root 1.64386 17.5266 9.03859 -1.821 -1.35215 0.311376
lowerback 6.49781 2.40154 -2.37733
upperback -0.3038 3.06678 1.21645
thorax -4.15025 1.58627 2.28302
lowerneck -15.244 -0.774244 4.63171
upperneck 20.8155 -1.30263 -4.05328
head 8.97515 -0.683831 -2.31575
rclavicle -3.88873e-015 2.38542e-015
rhumerus -37.8366 -10.4456 -72.2606
rradius 32.188
rwrist -8.24748
rhand -21.3102 -5.59078
rfingers 7.12502
rthumb 5.07482 -35.51
lclavicle -3.88873e-015 2.38542e-015
lhumerus -51.8049 26.166 59.7908
lradius 9.00944
lwrist -23.6027
lhand -12.9552 -3.35475
lfingers 7.12502
lthumb 13.1364 26.2115
rfemur 4.23715 -2.13565 14.7161
rtibia 59.2283
rfoot 21.794 -7.73324
rtoes -6.08987
lfemur -26.0445 3.97912 -22.7423
ltibia 36.4375
lfoot -4.89024 10.3529
ltoes -9.69348
304
root 1.66407 17.5523 9.32742 -1.98176 -1.14064 0.785818
lowerback 6.50187 2.27478 -2.8464
upperback -0.200622 2.85686 1.10028
thorax -4.0502 1.48822 2.44996
lowerneck -15.297 -0.688724 4.72127
upperneck 20.7214 -1.18749 -4.15244
head 8.95675 -0.634917 -2.35003
rclavicle -2.136e-014 -1.13307e-014
rhumerus -38.2295 -10.6795 -72.1587
rradius 31.3234
rwrist -8.03275
rhand -21.3004 -5.77356
rfingers 7.12502
rthumb 5.08427 -35.6926
lclavicle -2.136e-014 -1.13307e-014
lhumerus -51.2346 26.2833 60.1662
lradius 9.2371
lwrist -23.8731
lhand -12.9906 -3.55704
lfingers 7.12502
lthumb 13.1023 26.0114
rfemur 2.18463 -2.72411 13.9947
rtibia 62.0549
rfoot 18.8146 -8.66124
rtoes -7.1581
lfemur -24.8327 3.53603 -23.3688
ltibia 36.5668
lfoot -5.37842 11.0857
ltoes -8.52007
305
root 1.6847 17.581 9.61293 -2.02097 -0.897044 1.3387
lowerback 6.39995 2.13029 -3.3896
upperback -0.131477 2.62095 0.963055
thorax -3.92398 1.37792 2.64226
lowerneck -15.2957 -0.600791 4.82922
upperneck 20.5517 -1.06347 -4.29137
head 8.90264 -0.584981 -2.3978
rclavicle -1.42954e-014 2.18663e-015
rhumerus -38.5971 -10.9387 -72.0369
rradius 30.3837
rwrist -7.62604
rhand -21.1473 -5.81279
rfingers 7.12502
rthumb 5.2321 -35.7282
lclavicle -1.42954e-014 2.18663e-015
lhumerus -50.6261 26.4222 60.5401
lradius 9.50731
lwrist -24.0861
lhand -13.053 -3.78022
lfingers 7.12502
lthumb 13.0421 25.792
rfemur -0.00203021 -3.37298 13.2167
rtibia 64.541
rfoot 15.6254 -9.53629
rtoes -7.63241
lfemur -23.6676 2.9054 -24.0857
ltibia 36.5322
lfoot -5.81736 11.9138
ltoes -7.49725
306
root 1.70662 17.6114 9.89536 -1.97628 -0.658173 1.89442
lowerback 6.23126 1.97774 -3.91519
upperback -0.0852371 2.37999 0.822062
thorax -3.77951 1.26388 2.8222
lowerneck -15.297 -0.52756 4.90096
upperneck 20.3977 -0.957142 -4.40361
head 8.85431 -0.543076 -2.43279
rclavicle 2.56091e-014 4.37326e-015
rhumerus -38.9488 -11.2195 -71.8983
rradius 29.4016
rwrist -7.05177
rhand -20.8456 -5.75711
rfingers 7.12502
rthumb 5.52347 -35.6651
lclavicle 2.56091e-014 4.37326e-015
lhumerus -49.9547 26.5855 60.9241
lradius 9.77162
lwrist -24.3146
lhand -13.1606 -4.16167
lfingers 7.12502
lthumb 12.9384 25.4172
rfemur -2.26949 -4.01997 12.4768
rtibia 66.6428
rfoot 12.3578 -10.3599
rtoes -7.89425
lfemur -22.5297 2.19101 -24.8117
ltibia 36.3687
lfoot -6.23397 12.7515
ltoes -6.63452
307
root 1.73018 17.6419 10.1763 -1.89851 -0.455678 2.37945
lowerback 6.02936 1.82893 -4.33288
upperback -0.0616129 2.15616 0.696232
thorax -3.63464 1.15605 2.95491
lowerneck -15.2486 -0.466185 4.94676
upperneck 20.2583 -0.867407 -4.47636
head 8.80173 -0.506095 -2.45158
rclavicle -8.62228e-015 1.19271e-015
rhumerus -39.3421 -11.5361 -71.7168
rradius 28.4024
rwrist -6.30627
rhand -20.4091 -5.57943
rfingers 7.12502
rthumb 5.94488 -35.476
lclavicle -8.62228e-015 1.19271e-015
lhumerus -49.2805 26.7222 61.2941
lradius 10.0954
lwrist -24.5382
lhand -13.2572 -4.52669
lfingers 7.12502
lthumb 12.8453 25.0581
rfemur -4.5367 -4.60854 11.8644
rtibia 68.3319
rfoot 9.11462 -11.134
rtoes -7.75298
lfemur -21.3848 1.4943 -25.4662
ltibia 36.1192
lfoot -6.64938 13.5705
ltoes -5.92328
308
root 1.75457 17.671 10.4554 -1.8145 -0.29987 2.75089
lowerback 5.83201 1.68582 -4.6114
upperback -0.0615656 1.95219 0.599338
thorax -3.51255 1.05622 3.03571
lowerneck -15.1987 -0.407364 4.96086
upperneck 20.2229 -0.785852 -4.48513
head 8.78478 -0.467617 -2.44622
rclavicle -1.24955e-014 4.37326e-015
rhumerus -39.7843 -11.859 -71.5013
rradius 27.3992
rwrist -5.44609
rhand -19.8797 -5.3263
rfingers 7.12502
rthumb 6.45597 -35.2079
lclavicle -1.24955e-014 4.37326e-015
lhumerus -47.7047 25.1915 63.698
lradius 10.4582
lwrist -22.3681
lhand -13.5969 -4.55708
lfingers 7.12502
lthumb 12.5178 25.048
rfemur -6.7666 -5.12956 11.4343
rtibia 69.6066
rfoot 6.07471 -11.8237
rtoes -6.63762
lfemur -20.2347 0.881259 -25.9994
ltibia 35.8282
lfoot -7.08067 14.3268
ltoes -5.3629
309
root 1.7793 17.698 10.7332 -1.75051 -0.184056 3.00545
lowerback 5.66233 1.55354 -4.74762
upperback -0.0819196 1.77279 0.534394
thorax -3.42464 0.967283 3.06534
lowerneck -15.1064 -0.366132 4.92525
upperneck 20.2466 -0.728559 -4.42596
head 8.77965 -0.436275 -2.41285
rclavicle 9.88643e-015 -2.38542e-015
rhumerus -40.2961 -12.1947 -71.2405
rradius 26.4233
rwrist -4.51065
rhand -19.2885 -5.08466
rfingers 7.12502
rthumb 7.02668 -34.948
lclavicle 9.88643e-015 -2.38542e-015
lhumerus -46.1964 23.4725 66.0903
lradius 10.8981
lwrist -20.1187
lhand -13.9189 -4.50511
lfingers 7.12502
lthumb 12.2073 25.1187
rfemur -8.92216 -5.59653 11.1905
rtibia 70.4843
rfoot 3.26662 -12.4169
rtoes -4.65564
lfemur -19.0623 0.377187 -26.4055
ltibia 35.5163
lfoot -7.54484 14.9863
ltoes -4.96
310
root 1.80262 17.7222 11.0095 -1.72104 -0.0887013 3.17843
lowerback 5.54246 1.43292 -4.80222
upperback -0.110424 1.61286 0.495267
thorax -3.37289 0.887742 3.07212
lowerneck -15.0176 -0.328302 4.8898
upperneck 20.3259 -0.677839 -4.35529
head 8.79387 -0.406393 -2.37746
rclavicle -2.96174e-014 4.77083e-015
rhumerus -40.851 -12.5452 -70.9392
rradius 25.4731
rwrist -3.53535
rhand -18.6829 -4.87807
rfingers 7.12502
rthumb 7.61122 -34.7211
lclavicle -2.96174e-014 4.77083e-015
lhumerus -44.7744 21.6359 68.4017
lradius 11.4145
lwrist -17.8346
lhand -14.2469 -4.41597
lfingers 7.12502
lthumb 11.891 25.2264
rfemur -10.9879 -6.02601 11.0989
rtibia 70.993
rfoot 0.734307 -12.9303
rtoes -2.02825
lfemur -17.8585 0.000341585 -26.7174
ltibia 35.1919
lfoot -8.038 15.5275
ltoes -4.72274
311
root 1.82409 17.743 11.2846 -1.72628 0.0193275 3.35098
lowerback 5.4763 1.31482 -4.86863
upperback -0.136777 1.4531 0.464317
thorax -3.34955 0.809124 3.09248
lowerneck -14.9277 -0.295009 4.86487
upperneck 20.3935 -0.629542 -4.31435
head 8.80338 -0.380132 -2.35404
rclavicle -1.7608e-014 -5.56597e-015
rhumerus -41.4155 -12.9229 -70.5946
rradius 24.5375
rwrist -2.51422
rhand -18.0736 -4.7558
rfingers 7.12502
rthumb 8.19935 -34.5767
lclavicle -1.7608e-014 -5.56597e-015
lhumerus -43.4364 19.7398 70.5987
lradius 11.999
lwrist -15.5709
lhand -14.5617 -4.29514
lfingers 7.12502
lthumb 11.5874 25.3645
rfemur -12.961 -6.45226 11.0591
rtibia 71.1664
rfoot -1.50993 -13.3693
rtoes 0.793018
lfemur -16.613 -0.283884 -27.0245
ltibia 34.8447
lfoot -8.55209 15.9596
ltoes -4.63365
312
root 1.84238 17.76 11.5588 -1.76222 0.131953 3.52253
lowerback 5.44212 1.20093 -4.96358
upperback -0.197501 1.29475 0.437891
thorax -3.38063 0.73369 3.13227
lowerneck -14.6605 -0.277411 4.86951
upperneck 20.4124 -0.592732 -4.31841
head 8.7626 -0.360755 -2.34963
rclavicle 1.76957e-014 1.59028e-015
rhumerus -42.085 -13.3337 -70.1762
rradius 23.6216
rwrist -1.39375
rhand -17.4639 -4.63913
rfingers 7.12502
rthumb 8.7877 -34.4362
lclavicle 1.76957e-014 1.59028e-015
lhumerus -42.286 17.8452 72.5733
lradius 12.6515
lwrist -13.4309
lhand -14.8525 -4.19038
lfingers 7.12502
lthumb 11.307 25.4848
rfemur -14.8517 -6.85446 11.0838
rtibia 71.0362
rfoot -3.47621 -13.8017
rtoes 3.34722
lfemur -15.3276 -0.493435 -27.3182
ltibia 34.4693
lfoot -9.08067 16.3042
ltoes -4.65556
313
root 1.85768 17.7725 11.8324 -1.81076 0.262615 3.75765
lowerback 5.40739 1.08856 -5.14588
upperback -0.333504 1.13028 0.39312
thorax -3.49022 0.66013 3.20196
lowerneck -13.9904 -0.274304 4.95473
upperneck 20.269 -0.559549 -4.40994
head 8.59162 -0.34389 -2.3821
rclavicle 6.42168e-015 1.59028e-015
rhumerus -42.9572 -13.7435 -69.6645
rradius 22.7485
rwrist -0.209819
rhand -16.8815 -4.51895
rfingers 7.12502
rthumb 9.34967 -34.2916
lclavicle 6.42168e-015 1.59028e-015
lhumerus -41.3966 15.8458 74.378
lradius 13.4045
lwrist -11.2571
lhand -15.1034 -4.04152
lfingers 7.12502
lthumb 11.0651 25.6468
rfemur -16.6806 -7.251 11.0893
rtibia 70.6386
rfoot -5.29141 -14.2147
rtoes 5.0763
lfemur -14.0115 -0.665697 -27.6737
ltibia 34.0557
lfoot -9.60505 16.5946
ltoes -4.79962
